<svg width="57" height="55" viewBox="0 0 57 55" fill="none" xmlns="http://www.w3.org/2000/svg">
<rect y="0.679199" width="57" height="53.9171" rx="25" fill="#F58A07"/>
<g clip-path="url(#clip0_7_4433)">
<path d="M35.7651 29.7226L31.5783 33.6818L31.5782 33.6818C31.3543 33.8937 31.224 34.1859 31.224 34.4956C31.224 34.8053 31.3543 35.0976 31.5782 35.3094C31.8015 35.5205 32.0997 35.6355 32.4062 35.6355C32.7128 35.6355 33.011 35.5205 33.2343 35.3094L39.4839 29.3978L35.7651 29.7226ZM35.7651 29.7226H18.3438C18.0374 29.7226 17.7395 29.6077 17.5164 29.3968C17.2927 29.1851 17.1625 28.8931 17.1625 28.5836C17.1625 28.2742 17.2927 27.9822 17.5164 27.7705C17.7395 27.5596 18.0374 27.4447 18.3438 27.4447H35.7651M35.7651 29.7226V27.4447M35.7651 27.4447L31.5783 23.4855L31.5782 23.4855C31.3543 23.2736 31.224 22.9814 31.224 22.6717C31.224 22.362 31.3543 22.0697 31.5782 21.8579C31.8015 21.6468 32.0997 21.5318 32.4062 21.5318C32.7128 21.5318 33.011 21.6468 33.2343 21.8579L39.4839 27.7695L35.7651 27.4447ZM39.7455 28.1397C39.6842 28 39.595 27.8745 39.4843 27.7698V29.3974C39.595 29.2928 39.6842 29.1673 39.7455 29.0276C39.807 28.8876 39.8389 28.7367 39.8389 28.5836C39.8389 28.4306 39.807 28.2797 39.7455 28.1397Z" fill="white" stroke="white" stroke-width="0.8"/>
</g>
<defs>
<clipPath id="clip0_7_4433">
<rect x="16" y="40.4076" width="23.6478" height="25" rx="11.8239" transform="rotate(-90 16 40.4076)" fill="white"/>
</clipPath>
</defs>
</svg>
