<svg width="57" height="55" viewBox="0 0 57 55" fill="none" xmlns="http://www.w3.org/2000/svg">
<rect y="0.679199" width="57" height="53.9171" rx="25" fill="url(#paint0_linear_7_4438)"/>
<g clip-path="url(#clip0_7_4438)">
<path d="M21.2349 28.7768L25.4217 32.7359L25.4218 32.7359C25.6457 32.9478 25.776 33.24 25.776 33.5497C25.776 33.8594 25.6457 34.1517 25.4218 34.3635C25.1985 34.5746 24.9003 34.6896 24.5938 34.6896C24.2872 34.6896 23.989 34.5746 23.7657 34.3635L17.5161 28.4519L21.2349 28.7768ZM21.2349 28.7768H38.6562C38.9626 28.7768 39.2605 28.6618 39.4836 28.4509C39.7073 28.2392 39.8375 27.9472 39.8375 27.6378C39.8375 27.3283 39.7073 27.0363 39.4836 26.8246C39.2605 26.6137 38.9626 26.4988 38.6562 26.4988H21.2349M21.2349 28.7768V26.4988M21.2349 26.4988L25.4217 22.5396L25.4218 22.5396C25.6457 22.3278 25.776 22.0355 25.776 21.7258C25.776 21.4161 25.6457 21.1238 25.4218 20.912C25.1985 20.7009 24.9003 20.5859 24.5938 20.5859C24.2872 20.5859 23.989 20.7009 23.7657 20.912L17.5161 26.8236L21.2349 26.4988ZM17.2545 27.1938C17.3158 27.0541 17.405 26.9286 17.5157 26.824V28.4516C17.405 28.3469 17.3158 28.2214 17.2545 28.0817C17.193 27.9417 17.1611 27.7908 17.1611 27.6378C17.1611 27.4847 17.193 27.3338 17.2545 27.1938Z" fill="white" stroke="white" stroke-width="0.8"/>
</g>
<defs>
<linearGradient id="paint0_linear_7_4438" x1="54.6093" y1="2.88892" x2="171.662" y2="26.0121" gradientUnits="userSpaceOnUse">
<stop stop-color="#474747"/>
<stop offset="0.417966" stop-color="#222222"/>
</linearGradient>
<clipPath id="clip0_7_4438">
<rect width="23.6478" height="25" rx="11.8239" transform="matrix(0 -1 -1 0 41 39.4617)" fill="white"/>
</clipPath>
</defs>
</svg>
